<mxfile host="app.diagrams.net" agent="Mozilla/5.0 (Windows NT 10.0; Win64; x64) AppleWebKit/537.36 (KHTML, like Gecko) Chrome/130.0.0.0 Safari/537.36 Edg/130.0.0.0" version="24.8.1">
  <diagram id="C5RBs43oDa-KdzZeNtuy" name="Page-1">
    <mxGraphModel dx="1386" dy="783" grid="1" gridSize="10" guides="1" tooltips="1" connect="1" arrows="1" fold="1" page="1" pageScale="1" pageWidth="827" pageHeight="1169" background="none" math="0" shadow="0">
      <root>
        <mxCell id="WIyWlLk6GJQsqaUBKTNV-0" />
        <mxCell id="WIyWlLk6GJQsqaUBKTNV-1" parent="WIyWlLk6GJQsqaUBKTNV-0" />
        <mxCell id="zs4alQ1DkuvcxieNfmcu-17" value="" style="edgeStyle=orthogonalEdgeStyle;rounded=0;orthogonalLoop=1;jettySize=auto;html=1;fillColor=#dae8fc;strokeColor=#6c8ebf;" parent="WIyWlLk6GJQsqaUBKTNV-1" source="6RgkXGSBiMjiyrSXwCjS-5" target="6RgkXGSBiMjiyrSXwCjS-9" edge="1">
          <mxGeometry relative="1" as="geometry" />
        </mxCell>
        <mxCell id="6RgkXGSBiMjiyrSXwCjS-5" value="start" style="strokeWidth=2;html=1;shape=mxgraph.flowchart.terminator;whiteSpace=wrap;" parent="WIyWlLk6GJQsqaUBKTNV-1" vertex="1">
          <mxGeometry x="390" y="30" width="100" height="50" as="geometry" />
        </mxCell>
        <mxCell id="zs4alQ1DkuvcxieNfmcu-12" value="No" style="edgeStyle=orthogonalEdgeStyle;rounded=0;orthogonalLoop=1;jettySize=auto;html=1;entryX=0;entryY=0.5;entryDx=0;entryDy=0;fillColor=#dae8fc;strokeColor=#6c8ebf;" parent="WIyWlLk6GJQsqaUBKTNV-1" source="6RgkXGSBiMjiyrSXwCjS-9" target="pUnxnktD7NIAmPp9yuuM-11" edge="1">
          <mxGeometry x="0.0006" relative="1" as="geometry">
            <mxPoint as="offset" />
          </mxGeometry>
        </mxCell>
        <mxCell id="zs4alQ1DkuvcxieNfmcu-15" style="edgeStyle=orthogonalEdgeStyle;rounded=0;orthogonalLoop=1;jettySize=auto;html=1;entryX=1;entryY=0.5;entryDx=0;entryDy=0;fillColor=#dae8fc;strokeColor=#6c8ebf;" parent="WIyWlLk6GJQsqaUBKTNV-1" source="6RgkXGSBiMjiyrSXwCjS-9" target="pUnxnktD7NIAmPp9yuuM-10" edge="1">
          <mxGeometry relative="1" as="geometry" />
        </mxCell>
        <mxCell id="6RgkXGSBiMjiyrSXwCjS-9" value="do you want to play the card game?" style="strokeWidth=2;html=1;shape=mxgraph.flowchart.decision;whiteSpace=wrap;" parent="WIyWlLk6GJQsqaUBKTNV-1" vertex="1">
          <mxGeometry x="377" y="105" width="126" height="110" as="geometry" />
        </mxCell>
        <mxCell id="x1otItOwz59iUBktySWJ-1" value="end code" style="strokeWidth=2;html=1;shape=mxgraph.flowchart.terminator;whiteSpace=wrap;" parent="WIyWlLk6GJQsqaUBKTNV-1" vertex="1">
          <mxGeometry x="800" y="135" width="100" height="50" as="geometry" />
        </mxCell>
        <mxCell id="pUnxnktD7NIAmPp9yuuM-4" value="lower" style="edgeStyle=orthogonalEdgeStyle;rounded=0;orthogonalLoop=1;jettySize=auto;html=1;entryX=0.5;entryY=0;entryDx=0;entryDy=0;exitX=0;exitY=0.5;exitDx=0;exitDy=0;exitPerimeter=0;fillColor=#dae8fc;strokeColor=#6c8ebf;" parent="WIyWlLk6GJQsqaUBKTNV-1" source="pUnxnktD7NIAmPp9yuuM-0" target="zs4alQ1DkuvcxieNfmcu-1" edge="1">
          <mxGeometry x="-0.0746" relative="1" as="geometry">
            <mxPoint x="328" y="360" as="sourcePoint" />
            <mxPoint x="170" y="440" as="targetPoint" />
            <mxPoint as="offset" />
          </mxGeometry>
        </mxCell>
        <mxCell id="pUnxnktD7NIAmPp9yuuM-5" value="higher" style="edgeStyle=orthogonalEdgeStyle;rounded=0;orthogonalLoop=1;jettySize=auto;html=1;entryX=0.5;entryY=0;entryDx=0;entryDy=0;exitX=1;exitY=0.5;exitDx=0;exitDy=0;exitPerimeter=0;fillColor=#dae8fc;strokeColor=#6c8ebf;" parent="WIyWlLk6GJQsqaUBKTNV-1" source="pUnxnktD7NIAmPp9yuuM-0" target="zs4alQ1DkuvcxieNfmcu-0" edge="1">
          <mxGeometry x="-0.0704" relative="1" as="geometry">
            <mxPoint x="320" y="400" as="targetPoint" />
            <Array as="points">
              <mxPoint x="405" y="360" />
              <mxPoint x="405" y="460" />
            </Array>
            <mxPoint as="offset" />
          </mxGeometry>
        </mxCell>
        <mxCell id="pUnxnktD7NIAmPp9yuuM-0" value="is the next card gonna be higher or lower number?" style="strokeWidth=2;html=1;shape=mxgraph.flowchart.decision;whiteSpace=wrap;" parent="WIyWlLk6GJQsqaUBKTNV-1" vertex="1">
          <mxGeometry x="217.5" y="300" width="115" height="120" as="geometry" />
        </mxCell>
        <mxCell id="pUnxnktD7NIAmPp9yuuM-2" value="revert score to 0, stop printing cards" style="rounded=1;whiteSpace=wrap;html=1;absoluteArcSize=1;arcSize=14;strokeWidth=2;" parent="WIyWlLk6GJQsqaUBKTNV-1" vertex="1">
          <mxGeometry x="10" y="630" width="100" height="80" as="geometry" />
        </mxCell>
        <mxCell id="zs4alQ1DkuvcxieNfmcu-20" value="" style="edgeStyle=orthogonalEdgeStyle;rounded=0;orthogonalLoop=1;jettySize=auto;html=1;fillColor=#dae8fc;strokeColor=#6c8ebf;" parent="WIyWlLk6GJQsqaUBKTNV-1" source="pUnxnktD7NIAmPp9yuuM-3" target="pUnxnktD7NIAmPp9yuuM-21" edge="1">
          <mxGeometry relative="1" as="geometry" />
        </mxCell>
        <mxCell id="pUnxnktD7NIAmPp9yuuM-3" value="add 1 to score variable" style="rounded=1;whiteSpace=wrap;html=1;absoluteArcSize=1;arcSize=14;strokeWidth=2;" parent="WIyWlLk6GJQsqaUBKTNV-1" vertex="1">
          <mxGeometry x="717" y="285" width="100" height="80" as="geometry" />
        </mxCell>
        <mxCell id="zs4alQ1DkuvcxieNfmcu-19" value="" style="edgeStyle=orthogonalEdgeStyle;rounded=0;orthogonalLoop=1;jettySize=auto;html=1;fillColor=#dae8fc;strokeColor=#6c8ebf;" parent="WIyWlLk6GJQsqaUBKTNV-1" source="pUnxnktD7NIAmPp9yuuM-10" target="pUnxnktD7NIAmPp9yuuM-0" edge="1">
          <mxGeometry relative="1" as="geometry" />
        </mxCell>
        <mxCell id="pUnxnktD7NIAmPp9yuuM-10" value="print out initial card&lt;div&gt;and message&lt;/div&gt;" style="shape=parallelogram;html=1;strokeWidth=2;perimeter=parallelogramPerimeter;whiteSpace=wrap;rounded=1;arcSize=12;size=0.23;" parent="WIyWlLk6GJQsqaUBKTNV-1" vertex="1">
          <mxGeometry x="210" y="125" width="130" height="70" as="geometry" />
        </mxCell>
        <mxCell id="pUnxnktD7NIAmPp9yuuM-11" value="&lt;div&gt;output exit code&lt;/div&gt;" style="shape=parallelogram;html=1;strokeWidth=2;perimeter=parallelogramPerimeter;whiteSpace=wrap;rounded=1;arcSize=12;size=0.23;" parent="WIyWlLk6GJQsqaUBKTNV-1" vertex="1">
          <mxGeometry x="570" y="122.5" width="130" height="75" as="geometry" />
        </mxCell>
        <mxCell id="zs4alQ1DkuvcxieNfmcu-32" style="edgeStyle=orthogonalEdgeStyle;rounded=0;orthogonalLoop=1;jettySize=auto;html=1;entryX=0;entryY=0.5;entryDx=0;entryDy=0;fillColor=#dae8fc;strokeColor=#6c8ebf;" parent="WIyWlLk6GJQsqaUBKTNV-1" source="pUnxnktD7NIAmPp9yuuM-12" target="pUnxnktD7NIAmPp9yuuM-10" edge="1">
          <mxGeometry relative="1" as="geometry">
            <Array as="points">
              <mxPoint x="130" y="300" />
              <mxPoint x="130" y="160" />
            </Array>
          </mxGeometry>
        </mxCell>
        <mxCell id="pUnxnktD7NIAmPp9yuuM-12" value="would you like to play again?" style="strokeWidth=2;html=1;shape=mxgraph.flowchart.decision;whiteSpace=wrap;" parent="WIyWlLk6GJQsqaUBKTNV-1" vertex="1">
          <mxGeometry x="10" y="250" width="100" height="100" as="geometry" />
        </mxCell>
        <mxCell id="pUnxnktD7NIAmPp9yuuM-13" style="edgeStyle=orthogonalEdgeStyle;rounded=0;orthogonalLoop=1;jettySize=auto;html=1;entryX=0.5;entryY=1;entryDx=0;entryDy=0;entryPerimeter=0;fillColor=#dae8fc;strokeColor=#6c8ebf;" parent="WIyWlLk6GJQsqaUBKTNV-1" source="pUnxnktD7NIAmPp9yuuM-2" target="pUnxnktD7NIAmPp9yuuM-12" edge="1">
          <mxGeometry relative="1" as="geometry" />
        </mxCell>
        <mxCell id="pUnxnktD7NIAmPp9yuuM-15" style="edgeStyle=orthogonalEdgeStyle;rounded=0;orthogonalLoop=1;jettySize=auto;html=1;fillColor=#dae8fc;strokeColor=#6c8ebf;" parent="WIyWlLk6GJQsqaUBKTNV-1" edge="1">
          <mxGeometry relative="1" as="geometry">
            <Array as="points">
              <mxPoint x="60" y="20" />
              <mxPoint x="850" y="20" />
            </Array>
            <mxPoint x="60" y="250" as="sourcePoint" />
            <mxPoint x="850" y="140" as="targetPoint" />
          </mxGeometry>
        </mxCell>
        <mxCell id="zs4alQ1DkuvcxieNfmcu-26" value="yes" style="edgeStyle=orthogonalEdgeStyle;rounded=0;orthogonalLoop=1;jettySize=auto;html=1;entryX=0;entryY=0.5;entryDx=0;entryDy=0;fillColor=#dae8fc;strokeColor=#6c8ebf;" parent="WIyWlLk6GJQsqaUBKTNV-1" source="pUnxnktD7NIAmPp9yuuM-18" target="pUnxnktD7NIAmPp9yuuM-3" edge="1">
          <mxGeometry relative="1" as="geometry" />
        </mxCell>
        <mxCell id="zs4alQ1DkuvcxieNfmcu-36" value="no" style="edgeStyle=orthogonalEdgeStyle;rounded=0;orthogonalLoop=1;jettySize=auto;html=1;fillColor=#dae8fc;strokeColor=#6c8ebf;" parent="WIyWlLk6GJQsqaUBKTNV-1" source="pUnxnktD7NIAmPp9yuuM-18" target="pUnxnktD7NIAmPp9yuuM-25" edge="1">
          <mxGeometry relative="1" as="geometry">
            <Array as="points">
              <mxPoint x="585" y="240" />
              <mxPoint x="880" y="240" />
              <mxPoint x="880" y="325" />
            </Array>
          </mxGeometry>
        </mxCell>
        <mxCell id="pUnxnktD7NIAmPp9yuuM-18" value="would you like to keep playing?" style="strokeWidth=2;html=1;shape=mxgraph.flowchart.decision;whiteSpace=wrap;" parent="WIyWlLk6GJQsqaUBKTNV-1" vertex="1">
          <mxGeometry x="535" y="275" width="100" height="100" as="geometry" />
        </mxCell>
        <mxCell id="zs4alQ1DkuvcxieNfmcu-22" style="edgeStyle=orthogonalEdgeStyle;rounded=0;orthogonalLoop=1;jettySize=auto;html=1;entryX=0.5;entryY=1;entryDx=0;entryDy=0;entryPerimeter=0;fillColor=#dae8fc;strokeColor=#6c8ebf;" parent="WIyWlLk6GJQsqaUBKTNV-1" source="pUnxnktD7NIAmPp9yuuM-21" target="pUnxnktD7NIAmPp9yuuM-0" edge="1">
          <mxGeometry relative="1" as="geometry">
            <mxPoint x="500" y="630" as="targetPoint" />
            <Array as="points">
              <mxPoint x="767" y="810" />
              <mxPoint x="275" y="810" />
            </Array>
          </mxGeometry>
        </mxCell>
        <mxCell id="pUnxnktD7NIAmPp9yuuM-21" value="output next card" style="shape=parallelogram;perimeter=parallelogramPerimeter;whiteSpace=wrap;html=1;fixedSize=1;strokeWidth=2;" parent="WIyWlLk6GJQsqaUBKTNV-1" vertex="1">
          <mxGeometry x="707" y="420" width="120" height="60" as="geometry" />
        </mxCell>
        <mxCell id="pUnxnktD7NIAmPp9yuuM-25" value="output total score and correct guesses, thanks for playing" style="shape=parallelogram;html=1;strokeWidth=2;perimeter=parallelogramPerimeter;whiteSpace=wrap;rounded=1;arcSize=12;size=0.23076923076923078;" parent="WIyWlLk6GJQsqaUBKTNV-1" vertex="1">
          <mxGeometry x="890" y="280" width="230" height="90" as="geometry" />
        </mxCell>
        <mxCell id="zs4alQ1DkuvcxieNfmcu-6" value="incorrect" style="edgeStyle=orthogonalEdgeStyle;rounded=0;orthogonalLoop=1;jettySize=auto;html=1;entryX=1;entryY=0.5;entryDx=0;entryDy=0;fillColor=#f8cecc;strokeColor=#b85450;" parent="WIyWlLk6GJQsqaUBKTNV-1" source="zs4alQ1DkuvcxieNfmcu-0" target="pUnxnktD7NIAmPp9yuuM-2" edge="1">
          <mxGeometry relative="1" as="geometry">
            <Array as="points">
              <mxPoint x="400" y="670" />
            </Array>
          </mxGeometry>
        </mxCell>
        <mxCell id="zs4alQ1DkuvcxieNfmcu-8" value="correct" style="edgeStyle=orthogonalEdgeStyle;rounded=0;orthogonalLoop=1;jettySize=auto;html=1;entryX=0;entryY=0.5;entryDx=0;entryDy=0;entryPerimeter=0;fillColor=#d5e8d4;strokeColor=#82b366;" parent="WIyWlLk6GJQsqaUBKTNV-1" source="zs4alQ1DkuvcxieNfmcu-0" target="pUnxnktD7NIAmPp9yuuM-18" edge="1">
          <mxGeometry relative="1" as="geometry" />
        </mxCell>
        <mxCell id="zs4alQ1DkuvcxieNfmcu-0" value="check if input is correct" style="rounded=1;whiteSpace=wrap;html=1;absoluteArcSize=1;arcSize=14;strokeWidth=2;" parent="WIyWlLk6GJQsqaUBKTNV-1" vertex="1">
          <mxGeometry x="350" y="460" width="100" height="80" as="geometry" />
        </mxCell>
        <mxCell id="zs4alQ1DkuvcxieNfmcu-5" value="incorrect" style="edgeStyle=orthogonalEdgeStyle;rounded=0;orthogonalLoop=1;jettySize=auto;html=1;fillColor=#f8cecc;strokeColor=#b85450;" parent="WIyWlLk6GJQsqaUBKTNV-1" source="zs4alQ1DkuvcxieNfmcu-1" target="pUnxnktD7NIAmPp9yuuM-2" edge="1">
          <mxGeometry relative="1" as="geometry">
            <Array as="points">
              <mxPoint x="220" y="670" />
            </Array>
          </mxGeometry>
        </mxCell>
        <mxCell id="zs4alQ1DkuvcxieNfmcu-34" value="correct" style="edgeStyle=orthogonalEdgeStyle;rounded=0;orthogonalLoop=1;jettySize=auto;html=1;entryX=0.5;entryY=1;entryDx=0;entryDy=0;entryPerimeter=0;fillColor=#d5e8d4;strokeColor=#82b366;" parent="WIyWlLk6GJQsqaUBKTNV-1" source="zs4alQ1DkuvcxieNfmcu-1" target="pUnxnktD7NIAmPp9yuuM-18" edge="1">
          <mxGeometry x="0.93" relative="1" as="geometry">
            <mxPoint x="150" y="740" as="targetPoint" />
            <Array as="points">
              <mxPoint x="150" y="740" />
              <mxPoint x="585" y="740" />
            </Array>
            <mxPoint as="offset" />
          </mxGeometry>
        </mxCell>
        <mxCell id="zs4alQ1DkuvcxieNfmcu-1" value="check if input is correct" style="rounded=1;whiteSpace=wrap;html=1;absoluteArcSize=1;arcSize=14;strokeWidth=2;" parent="WIyWlLk6GJQsqaUBKTNV-1" vertex="1">
          <mxGeometry x="100" y="460" width="100" height="80" as="geometry" />
        </mxCell>
        <mxCell id="zs4alQ1DkuvcxieNfmcu-13" style="edgeStyle=orthogonalEdgeStyle;rounded=0;orthogonalLoop=1;jettySize=auto;html=1;entryX=0;entryY=0.5;entryDx=0;entryDy=0;entryPerimeter=0;fillColor=#dae8fc;strokeColor=#6c8ebf;" parent="WIyWlLk6GJQsqaUBKTNV-1" source="pUnxnktD7NIAmPp9yuuM-11" target="x1otItOwz59iUBktySWJ-1" edge="1">
          <mxGeometry relative="1" as="geometry" />
        </mxCell>
        <mxCell id="zs4alQ1DkuvcxieNfmcu-23" value="Blue Line = General Process&amp;nbsp;&lt;div&gt;Red Line = Incorrect check&lt;/div&gt;&lt;div&gt;Green Line = Correct check&lt;/div&gt;" style="rounded=0;whiteSpace=wrap;html=1;" parent="WIyWlLk6GJQsqaUBKTNV-1" vertex="1">
          <mxGeometry x="30" y="970" width="120" height="130" as="geometry" />
        </mxCell>
        <mxCell id="zs4alQ1DkuvcxieNfmcu-24" style="edgeStyle=orthogonalEdgeStyle;rounded=0;orthogonalLoop=1;jettySize=auto;html=1;entryX=1;entryY=0.5;entryDx=0;entryDy=0;entryPerimeter=0;fillColor=#dae8fc;strokeColor=#6c8ebf;" parent="WIyWlLk6GJQsqaUBKTNV-1" source="pUnxnktD7NIAmPp9yuuM-25" target="x1otItOwz59iUBktySWJ-1" edge="1">
          <mxGeometry relative="1" as="geometry" />
        </mxCell>
      </root>
    </mxGraphModel>
  </diagram>
</mxfile>
